<svg width="35" height="35" viewBox="0 0 38 38" fill="none" xmlns="http://www.w3.org/2000/svg">
<circle cx="19.1701" cy="19.0952" r="17.5713" fill="#F5F5F5" stroke="#D1D0D0" stroke-width="1.25197"/>
<path fill-rule="evenodd" clip-rule="evenodd" d="M24.1698 12.3034C24.4194 11.9926 24.7563 11.8176 25.1078 11.8164C25.4592 11.8152 25.7969 11.9878 26.0479 12.2969C26.2988 12.606 26.4429 13.0268 26.4489 13.4683C26.4549 13.9098 26.3223 14.3365 26.0799 14.6561L18.9603 25.8371C18.838 26.0027 18.6903 26.1356 18.5261 26.2278C18.3619 26.3201 18.1847 26.3698 18.0048 26.3739C17.825 26.3781 17.6464 26.3367 17.4796 26.2522C17.3129 26.1676 17.1614 26.0417 17.0342 25.8819L12.317 19.9531C12.1855 19.7993 12.0801 19.6137 12.007 19.4076C11.9339 19.2014 11.8946 18.9789 11.8914 18.7533C11.8883 18.5276 11.9213 18.3035 11.9886 18.0942C12.0559 17.885 12.156 17.6949 12.283 17.5353C12.41 17.3757 12.5613 17.2499 12.7279 17.1654C12.8944 17.0809 13.0728 17.0394 13.2524 17.0434C13.432 17.0474 13.6091 17.0967 13.7732 17.1886C13.9373 17.2804 14.085 17.4129 14.2074 17.578L17.942 22.2677L24.1359 12.3527C24.147 12.3354 24.1589 12.3189 24.1716 12.3034H24.1698Z" fill="#D1D0D0"/>
</svg>
