<svg width="35" height="35" viewBox="0 0 38 37" fill="none" xmlns="http://www.w3.org/2000/svg">
<circle cx="19.1701" cy="18.6597" r="17.5713" fill="#3976C9" stroke="#3976C9" stroke-width="1.25197"/>
<path fill-rule="evenodd" clip-rule="evenodd" d="M24.1698 11.8679C24.4194 11.557 24.7563 11.3821 25.1078 11.3809C25.4592 11.3796 25.7969 11.5523 26.0479 11.8614C26.2988 12.1705 26.4429 12.5913 26.4489 13.0327C26.4549 13.4742 26.3223 13.9009 26.0799 14.2206L18.9603 25.4016C18.838 25.5672 18.6903 25.7 18.5261 25.7923C18.3619 25.8845 18.1847 25.9342 18.0048 25.9384C17.825 25.9426 17.6464 25.9012 17.4796 25.8166C17.3129 25.7321 17.1614 25.6062 17.0342 25.4464L12.317 19.5176C12.1855 19.3637 12.0801 19.1782 12.007 18.972C11.9339 18.7659 11.8946 18.5434 11.8914 18.3177C11.8883 18.0921 11.9213 17.8679 11.9886 17.6587C12.0559 17.4494 12.156 17.2594 12.283 17.0998C12.41 16.9402 12.5613 16.8144 12.7279 16.7299C12.8944 16.6454 13.0728 16.6038 13.2524 16.6078C13.432 16.6118 13.6091 16.6612 13.7732 16.753C13.9373 16.8449 14.085 16.9773 14.2074 17.1424L17.942 21.8322L24.1359 11.9172C24.147 11.8998 24.1589 11.8833 24.1716 11.8679H24.1698Z" fill="white"/>
</svg>
