<svg width="30" height="29" viewBox="0 0 30 29" fill="none" xmlns="http://www.w3.org/2000/svg">
    <path d="M14.6667 0C13.6541 0 12.8333 0.820811 12.8333 1.83333V12.8333H1.83333C0.820811 12.8333 0 13.6541 0 14.6667C0 15.6792 0.820811 16.5 1.83333 16.5H12.8333V27.5C12.8333 28.5125 13.6541 29.3333 14.6667 29.3333C15.6792 29.3333 16.5 28.5125 16.5 27.5V16.5H27.5C28.5125 16.5 29.3333 15.6792 29.3333 14.6667C29.3333 13.6541 28.5125 12.8333 27.5 12.8333H16.5V1.83333C16.5 0.820811 15.6792 0 14.6667 0Z" fill="black"/>
</svg>
