<svg width="23" height="22" viewBox="0 0 23 22" fill="none" xmlns="http://www.w3.org/2000/svg">
    <path fill-rule="evenodd" clip-rule="evenodd" d="M11.198 6C8.43657 6 6.198 8.23858 6.198 11C6.198 13.7614 8.43657 16 11.198 16C13.9594 16 16.198 13.7614 16.198 11C16.198 8.23858 13.9594 6 11.198 6ZM8.198 11C8.198 12.6569 9.54114 14 11.198 14C12.8549 14 14.198 12.6569 14.198 11C14.198 9.34315 12.8549 8 11.198 8C9.54114 8 8.198 9.34315 8.198 11Z" fill="#878787"/>
    <path d="M17.198 4C16.6457 4 16.198 4.44772 16.198 5C16.198 5.55228 16.6457 6 17.198 6C17.7503 6 18.198 5.55228 18.198 5C18.198 4.44772 17.7503 4 17.198 4Z" fill="#878787"/>
    <path fill-rule="evenodd" clip-rule="evenodd" d="M4.198 0C1.98886 0 0.197998 1.79086 0.197998 4V18C0.197998 20.2091 1.98886 22 4.198 22H18.198C20.4071 22 22.198 20.2091 22.198 18V4C22.198 1.79086 20.4071 0 18.198 0H4.198ZM18.198 2H4.198C3.09343 2 2.198 2.89543 2.198 4V18C2.198 19.1046 3.09343 20 4.198 20H18.198C19.3026 20 20.198 19.1046 20.198 18V4C20.198 2.89543 19.3026 2 18.198 2Z" fill="#878787"/>
</svg>
