<svg width="34" height="33" viewBox="0 0 34 33" fill="none" xmlns="http://www.w3.org/2000/svg">
    <path fill-rule="evenodd" clip-rule="evenodd" d="M25.0583 22.5881C29.3348 17.0957 28.9486 9.14957 23.8995 4.1005C18.4322 -1.36684 9.56784 -1.36683 4.1005 4.1005C-1.36684 9.56785 -1.36684 18.4322 4.1005 23.8995C9.14957 28.9486 17.0957 29.3348 22.5881 25.0583C22.6118 25.0851 22.6364 25.1113 22.6621 25.1369L30.0867 32.5616C30.7701 33.245 31.8781 33.245 32.5616 32.5616C33.245 31.8781 33.245 30.7701 32.5616 30.0867L25.1369 22.6621C25.1113 22.6364 25.0851 22.6118 25.0583 22.5881ZM21.4246 6.57538C25.5251 10.6759 25.5251 17.3241 21.4246 21.4246C17.3241 25.5251 10.6759 25.5251 6.57538 21.4246C2.47487 17.3241 2.47487 10.6759 6.57538 6.57538C10.6759 2.47487 17.3241 2.47487 21.4246 6.57538Z" fill="black"/>
</svg>
