<svg width="23" height="34" viewBox="0 0 23 34" fill="none" xmlns="http://www.w3.org/2000/svg">
    <path fill-rule="evenodd" clip-rule="evenodd" d="M19.2206 7.9707C19.2206 12.1128 15.8627 15.4707 11.7206 15.4707C7.57845 15.4707 4.22058 12.1128 4.22058 7.9707C4.22058 3.82857 7.57845 0.470703 11.7206 0.470703C15.8627 0.470703 19.2206 3.82857 19.2206 7.9707ZM15.4706 7.9707C15.4706 10.0418 13.7916 11.7207 11.7206 11.7207C9.64951 11.7207 7.97058 10.0418 7.97058 7.9707C7.97058 5.89964 9.64951 4.2207 11.7206 4.2207C13.7916 4.2207 15.4706 5.89964 15.4706 7.9707Z" fill="black"/>
    <path d="M19.2206 22.9707C19.2206 21.9352 18.3811 21.0957 17.3456 21.0957H6.09558C5.06005 21.0957 4.22058 21.9352 4.22058 22.9707V34.2207H0.470581V22.9707C0.470581 19.8641 2.98898 17.3457 6.09558 17.3457H17.3456C20.4522 17.3457 22.9706 19.8641 22.9706 22.9707V34.2207H19.2206V22.9707Z" fill="black"/>
</svg>
